<?xml version="1.0" encoding="utf-8"?>
<!-- Generator: Adobe Illustrator 15.1.0, SVG Export Plug-In . SVG Version: 6.00 Build 0)  -->
<!DOCTYPE svg PUBLIC "-//W3C//DTD SVG 1.1//EN" "http://www.w3.org/Graphics/SVG/1.1/DTD/svg11.dtd">
<svg version="1.1" id="Layer_1" xmlns="http://www.w3.org/2000/svg" xmlns:xlink="http://www.w3.org/1999/xlink" x="0px" y="0px"
	 width="800px" height="402.2px" viewBox="0 0 800 402.2" enable-background="new 0 0 800 402.2" xml:space="preserve">
<g transform="matrix(1.5229 0 0 1.5229 -209.15 -407.98)" shape-rendering="auto">
	<path color-rendering="auto" image-rendering="auto" fill="#25274D" d="M245.531,267.899c-35.223,0-63.776,28.554-63.776,63.776
		c0,35.223,28.554,63.776,63.776,63.776c35.223-0.001,63.776-28.554,63.775-63.776C309.306,296.453,280.752,267.899,245.531,267.899
		L245.531,267.899z M302.797,394.169c-15.622,14.351-36.053,22.328-57.266,22.361c-21.182-0.038-41.584-8-57.194-22.317
		c-31.672,20.968-50.946,57.807-51.001,97.474c0.021,0.569,0.046,1.139,0.075,1.707h152.81c7.84-26.057,23.83-48.944,45.912-64.513
		c-8.472-13.798-19.751-25.715-33.318-34.713L302.797,394.169L302.797,394.169z"/>
	<path color-rendering="auto" image-rendering="auto" fill="#25274D" d="M554.44,267.899c-35.221,0-63.775,28.554-63.775,63.776
		c-0.001,35.223,28.554,63.776,63.775,63.776c35.224-0.001,63.776-28.554,63.775-63.776
		C618.215,296.453,589.663,267.899,554.44,267.899z M611.707,394.169c-15.622,14.351-36.052,22.328-57.266,22.361
		c-21.182-0.038-41.584-8-57.193-22.317c-13.557,8.975-24.833,20.864-33.312,34.632c22.068,15.588,38.039,38.487,45.86,64.55h152.78
		c0.03-0.568,0.055-1.138,0.077-1.707c-0.023-39.668-19.27-76.523-50.927-97.519H611.707z"/>
	<path color-rendering="auto" image-rendering="auto" fill="#25274D" d="M399.981,306.509c-35.222,0-63.776,28.553-63.776,63.776
		c-0.001,35.224,28.553,63.777,63.776,63.777c35.222,0,63.776-28.554,63.776-63.777
		C463.757,335.063,435.203,306.509,399.981,306.509z M457.247,432.769c-15.622,14.35-36.054,22.327-57.266,22.36
		c-21.182-0.038-41.583-8-57.195-22.316c-31.673,20.968-50.947,57.806-51.001,97.473c0.021,0.571,0.046,1.139,0.076,1.708h216.26
		c0.029-0.569,0.055-1.138,0.077-1.708c-0.023-39.668-19.271-76.523-50.927-97.518h-0.025V432.769z"/>
</g>
</svg>
